/* XPM */
static char * FieldTrip_xpm[] = {
"16 13 2 1",
" 	c None",
".	c #2C61DB",
"                ",
"                ",
"     ........   ",
"     ........   ",
"     ...        ",
"     ...        ",
"     ...        ",
"     .......    ",
"     .......    ",
"     ...        ",
"     ...        ",
"     ...        ",
"     ...        "};
