/* XPM */
static char * popuser_xpm[] = {
"67 50 694 2",
"  	c None",
". 	c #464EAA",
"+ 	c #1E1E76",
"@ 	c #02068E",
"# 	c #1222AA",
"$ 	c #323EB6",
"% 	c #525AB2",
"& 	c #1A0E4A",
"* 	c #020274",
"= 	c #02129E",
"- 	c #1626BA",
"; 	c #2E42C2",
"> 	c #424EB6",
", 	c #EAEAEA",
"' 	c #22163E",
") 	c #020260",
"! 	c #020686",
"~ 	c #0412A8",
"{ 	c #1A2AC6",
"] 	c #2E3ECA",
"^ 	c #424EBE",
"/ 	c #F6F6F6",
"( 	c #D2D2D2",
"_ 	c #FAFAFA",
": 	c #E6E6E6",
"< 	c #2A163E",
"[ 	c #06024A",
"} 	c #02028E",
"| 	c #2A42DA",
"1 	c #3A4ECC",
"2 	c #5C62B0",
"3 	c #FEFEFE",
"4 	c #CACACA",
"5 	c #2E1E36",
"6 	c #0B0642",
"7 	c #0A064A",
"8 	c #0612BA",
"9 	c #1E32D6",
"0 	c #3246DE",
"a 	c #F2F2F2",
"b 	c #C6C6C6",
"c 	c #2E2236",
"d 	c #12063A",
"e 	c #020282",
"f 	c #0206A2",
"g 	c #0A1AC2",
"h 	c #223ADA",
"i 	c #5A62C6",
"j 	c #968E9A",
"k 	c #2E2226",
"l 	c #22163A",
"m 	c #0A0242",
"n 	c #968EB2",
"o 	c #DED2D6",
"p 	c #CABEBE",
"q 	c #CECECE",
"r 	c #EEEEEE",
"s 	c #BABABA",
"t 	c #505658",
"u 	c #3B4346",
"v 	c #464A4D",
"w 	c #6A6E70",
"x 	c #0D0A0A",
"y 	c #040660",
"z 	c #22227E",
"A 	c #887A8C",
"B 	c #BAAEAE",
"C 	c #D6CED0",
"D 	c #DED6DA",
"E 	c #DEDFDF",
"F 	c #B9BABB",
"G 	c #363D40",
"H 	c #2D3537",
"I 	c #32383B",
"J 	c #373E42",
"K 	c #2E3638",
"L 	c #424649",
"M 	c #020202",
"N 	c #1F1E1B",
"O 	c #121A8A",
"P 	c #62568E",
"Q 	c #928292",
"R 	c #A69A92",
"S 	c #C0B6BC",
"T 	c #D6D2CE",
"U 	c #CEC2BA",
"V 	c #DAD2CB",
"W 	c #EEEEEA",
"X 	c #E3E4E5",
"Y 	c #626567",
"Z 	c #2E3236",
"` 	c #2E3539",
" .	c #2F3638",
"..	c #333B3D",
"+.	c #494E52",
"@.	c #353D40",
"#.	c #2A3034",
"$.	c #2D3134",
"%.	c #322A42",
"&.	c #1A1666",
"*.	c #0A0E8A",
"=.	c #423E96",
"-.	c #7E6E96",
";.	c #9E8E9A",
">.	c #6E565E",
",.	c #DEDAD5",
"'.	c #C2C2C2",
").	c #C2C4C5",
"!.	c #2B2F32",
"~.	c #292D31",
"{.	c #303639",
"].	c #353D41",
"^.	c #2B3335",
"/.	c #2A3234",
"(.	c #272F31",
"_.	c #22262A",
":.	c #43484A",
"<.	c #141212",
"[.	c #5A5262",
"}.	c #1E1A76",
"|.	c #121A8E",
"1.	c #56569A",
"2.	c #8A7E90",
"3.	c #766276",
"4.	c #5A4666",
"5.	c #AA9EAE",
"6.	c #C6BEBE",
"7.	c #E6E2DE",
"8.	c #BBBDBE",
"9.	c #272C2F",
"0.	c #2B2F33",
"a.	c #30383A",
"b.	c #3E4548",
"c.	c #44484C",
"d.	c #2F3337",
"e.	c #212629",
"f.	c #6A6D6F",
"g.	c #363636",
"h.	c #737271",
"i.	c #767676",
"j.	c #6E6E6E",
"k.	c #1A1E82",
"l.	c #363A8E",
"m.	c #767292",
"n.	c #664E5E",
"o.	c #523A4A",
"p.	c #8E7E8E",
"q.	c #C2B6AC",
"r.	c #D2CAC1",
"s.	c #C2BEBA",
"t.	c #C8C9CA",
"u.	c #7C7F81",
"v.	c #6A6E73",
"w.	c #202527",
"x.	c #363C3F",
"y.	c #8F9296",
"z.	c #B2B4B7",
"A.	c #7A7D81",
"B.	c #2B3033",
"C.	c #202629",
"D.	c #6E7073",
"E.	c #828282",
"F.	c #AAAAAA",
"G.	c #969696",
"H.	c #8A8A8A",
"I.	c #7E7E8A",
"J.	c #5A5674",
"K.	c #2A2A86",
"L.	c #62628E",
"M.	c #9A8E8E",
"N.	c #725A52",
"O.	c #624A2A",
"P.	c #86725A",
"Q.	c #BAAEA2",
"R.	c #EEEAE8",
"S.	c #DCDDDE",
"T.	c #94989B",
"U.	c #CFD0D2",
"V.	c #4E5357",
"W.	c #AFB0B4",
"X.	c #85898B",
"Y.	c #ACAEB1",
"Z.	c #3C4042",
"`.	c #1E2627",
" +	c #717476",
".+	c #D6D6D6",
"++	c #B6B6B6",
"@+	c #A6A6A6",
"#+	c #868686",
"$+	c #7E7E7E",
"%+	c #7A767A",
"&+	c #625E82",
"*+	c #7A7A7A",
"=+	c #929292",
"-+	c #AEAAA2",
";+	c #968670",
">+	c #6A5232",
",+	c #624E32",
"'+	c #A29A8A",
")+	c #D2D3D4",
"!+	c #424549",
"~+	c #8B887B",
"{+	c #AB9E5A",
"]+	c #BCB260",
"^+	c #8C886E",
"/+	c #343734",
"(+	c #808381",
"_+	c #373D3F",
":+	c #727577",
"<+	c #DADADA",
"[+	c #E2E2E2",
"}+	c #B2B2B2",
"|+	c #A6A29E",
"1+	c #8E8E8E",
"2+	c #A69E92",
"3+	c #927E6A",
"4+	c #76624E",
"5+	c #A29282",
"6+	c #D7D4CF",
"7+	c #9B8757",
"8+	c #DABF3F",
"9+	c #F7EB58",
"0+	c #F7EE5B",
"a+	c #E7D74C",
"b+	c #C9B94A",
"c+	c #B39A56",
"d+	c #433C31",
"e+	c #202628",
"f+	c #747779",
"g+	c #A2A2A1",
"h+	c #9A9A9A",
"i+	c #827E7A",
"j+	c #A69A8B",
"k+	c #82725E",
"l+	c #52361A",
"m+	c #523A1A",
"n+	c #928270",
"o+	c #E2DED6",
"p+	c #EADCC6",
"q+	c #E1B03A",
"r+	c #F9E540",
"s+	c #F3F163",
"t+	c #F7E956",
"u+	c #F7D43F",
"v+	c #DDA836",
"w+	c #BF8C30",
"x+	c #715A33",
"y+	c #1E2224",
"z+	c #9F9E9A",
"A+	c #4A3211",
"B+	c #8E7E66",
"C+	c #DED6D0",
"D+	c #E2DADA",
"E+	c #D1C9BD",
"F+	c #B5893C",
"G+	c #E8B83B",
"H+	c #E3BB45",
"I+	c #CE9E35",
"J+	c #A37430",
"K+	c #8A6438",
"L+	c #866B42",
"M+	c #3E3C34",
"N+	c #252C2E",
"O+	c #676C6E",
"P+	c #AEAEAE",
"Q+	c #A6968A",
"R+	c #9E9286",
"S+	c #765E44",
"T+	c #6A563E",
"U+	c #85765E",
"V+	c #C6BEB2",
"W+	c #717272",
"X+	c #6F6756",
"Y+	c #A68048",
"Z+	c #A57B39",
"`+	c #917042",
" @	c #917D65",
".@	c #CAC0B4",
"+@	c #BCBCBA",
"@@	c #4D535A",
"#@	c #484D4F",
"$@	c #D8D9DA",
"%@	c #BEBEBE",
"&@	c #8E8A7E",
"*@	c #5E4628",
"=@	c #767776",
"-@	c #3B3F43",
";@	c #7A7F82",
">@	c #7C7C7A",
",@	c #96979A",
"'@	c #D1D4D4",
")@	c #FCFCFC",
"!@	c #E0E1E2",
"~@	c #75797C",
"{@	c #323639",
"]@	c #2B3234",
"^@	c #8C8D8F",
"/@	c #DEDEDE",
"(@	c #E6E6E2",
"_@	c #9E9A94",
":@	c #9C9A96",
"<@	c #282C30",
"[@	c #8C8E91",
"}@	c #AEB0B4",
"|@	c #93979C",
"1@	c #A9ABAF",
"2@	c #D7D7D9",
"3@	c #F5F5F5",
"4@	c #9DA0A3",
"5@	c #393E41",
"6@	c #2C3337",
"7@	c #383D41",
"8@	c #AAABAC",
"9@	c #EAEAE6",
"0@	c #9E9E9E",
"a@	c #5E6264",
"b@	c #64686D",
"c@	c #E9E9EB",
"d@	c #E0E0E2",
"e@	c #DADADD",
"f@	c #EBEBED",
"g@	c #FBFBFB",
"h@	c #C5C7CA",
"i@	c #363E42",
"j@	c #2F3436",
"k@	c #292E31",
"l@	c #37393C",
"m@	c #B3B3B5",
"n@	c #A0A0A0",
"o@	c #878788",
"p@	c #3D4042",
"q@	c #FCFCFD",
"r@	c #525A5E",
"s@	c #2D3336",
"t@	c #222629",
"u@	c #1F2024",
"v@	c #9FA0A2",
"w@	c #AAAAAC",
"x@	c #26282B",
"y@	c #535659",
"z@	c #E0E0E1",
"A@	c #F5F5F6",
"B@	c #FDFDFD",
"C@	c #F8F9F9",
"D@	c #B8B8BB",
"E@	c #2A2E32",
"F@	c #232A2C",
"G@	c #212326",
"H@	c #D5D5D5",
"I@	c #404246",
"J@	c #111317",
"K@	c #6E7276",
"L@	c #BDBEC1",
"M@	c #E3E3E4",
"N@	c #E6E7E7",
"O@	c #E4E4E7",
"P@	c #595D5E",
"Q@	c #383E41",
"R@	c #2C3133",
"S@	c #161719",
"T@	c #8E8F90",
"U@	c #848486",
"V@	c #0A0D0F",
"W@	c #383A3C",
"X@	c #F1F2F2",
"Y@	c #B6B8B9",
"Z@	c #2E3335",
"`@	c #272B2F",
" #	c #282F31",
".#	c #16191B",
"+#	c #313537",
"@#	c #EDEDED",
"##	c #373737",
"$#	c #141517",
"%#	c #939598",
"&#	c #F2F2F3",
"*#	c #EAEAEB",
"=#	c #5F6265",
"-#	c #2B3135",
";#	c #191A1C",
">#	c #121215",
",#	c #D6D7D4",
"'#	c #626262",
")#	c #C3C3C3",
"!#	c #8E8E90",
"~#	c #101012",
"{#	c #3C4043",
"]#	c #D6D6D8",
"^#	c #F8F8F8",
"/#	c #949799",
"(#	c #1E2225",
"_#	c #2E3436",
":#	c #1B1E20",
"<#	c #0C0D10",
"[#	c #67696C",
"}#	c #3E3F42",
"|#	c #0D0E0E",
"1#	c #64676A",
"2#	c #BFBFC0",
"3#	c #34383C",
"4#	c #313538",
"5#	c #1A1B1E",
"6#	c #0F0F10",
"7#	c #454749",
"8#	c #CEC6C2",
"9#	c #D4CEC6",
"0#	c #7A7266",
"a#	c #D1D1D2",
"b#	c #181A1D",
"c#	c #4A4C51",
"d#	c #DBDBDD",
"e#	c #F7F7F7",
"f#	c #B1B4B7",
"g#	c #3A4144",
"h#	c #22292A",
"i#	c #14171B",
"j#	c #0C0D0F",
"k#	c #595552",
"l#	c #C4BAB0",
"m#	c #BEB2A6",
"n#	c #5E564E",
"o#	c #D3D3D4",
"p#	c #1C1E21",
"q#	c #0F1215",
"r#	c #272B2E",
"s#	c #B8B9BB",
"t#	c #7F8486",
"u#	c #32383C",
"v#	c #131417",
"w#	c #1C1C1D",
"x#	c #7E6E56",
"y#	c #766242",
"z#	c #867652",
"A#	c #DACEBA",
"B#	c #7E766E",
"C#	c #D9D9D8",
"D#	c #272727",
"E#	c #101014",
"F#	c #1B1B1F",
"G#	c #97979A",
"H#	c #4E5457",
"I#	c #262B2F",
"J#	c #16191A",
"K#	c #0F0F12",
"L#	c #48484C",
"M#	c #808080",
"N#	c #5A4E42",
"O#	c #826A46",
"P#	c #7A5622",
"Q#	c #A68A46",
"R#	c #D2BE8E",
"S#	c #9A8E7A",
"T#	c #EEECDE",
"U#	c #716C42",
"V#	c #181819",
"W#	c #131414",
"X#	c #73777A",
"Y#	c #E5E5E7",
"Z#	c #8D8F92",
"`#	c #33373B",
" $	c #212527",
".$	c #161618",
"+$	c #101013",
"@$	c #726246",
"#$	c #725632",
"$$	c #825E26",
"%$	c #A88A3C",
"&$	c #F2D499",
"*$	c #E4BF42",
"=$	c #524B27",
"-$	c #0D0F16",
";$	c #3D3F40",
">$	c #C6C7C8",
",$	c #F9F9F9",
"'$	c #FEFEFB",
")$	c #BFBFC1",
"!$	c #3D3F42",
"~$	c #252A2E",
"{$	c #1C1F21",
"]$	c #141618",
"^$	c #111214",
"/$	c #383B3F",
"($	c #222222",
"_$	c #5A4A3A",
":$	c #6A4A16",
"<$	c #9E7216",
"[$	c #AA8226",
"}$	c #F9F3E4",
"|$	c #EED284",
"1$	c #EBC871",
"2$	c #DFA438",
"3$	c #EBB53C",
"4$	c #AF9438",
"5$	c #0F1016",
"6$	c #1A1C1F",
"7$	c #909294",
"8$	c #EBEBEC",
"9$	c #FDFCF8",
"0$	c #F8E7A1",
"a$	c #F4D77B",
"b$	c #4B4536",
"c$	c #23282B",
"d$	c #43494D",
"e$	c #292C2F",
"f$	c #101316",
"g$	c #131518",
"h$	c #3E4246",
"i$	c #6E4E22",
"j$	c #F5E8D3",
"k$	c #DCA845",
"l$	c #DAA235",
"m$	c #DAA236",
"n$	c #E0A634",
"o$	c #EABD3E",
"p$	c #3A3321",
"q$	c #090C12",
"r$	c #54595F",
"s$	c #E9E9E9",
"t$	c #F3F3F3",
"u$	c #FCF8F1",
"v$	c #E9BA5F",
"w$	c #DEA134",
"x$	c #5F4B23",
"y$	c #10131A",
"z$	c #282E30",
"A$	c #383734",
"B$	c #82622A",
"C$	c #634D29",
"D$	c #4C5052",
"E$	c #EDCF97",
"F$	c #DCA53F",
"G$	c #DAA135",
"H$	c #F0B935",
"I$	c #8F732E",
"J$	c #0A0D12",
"K$	c #414447",
"L$	c #D5D5D8",
"M$	c #F1EDE6",
"N$	c #D8AA57",
"O$	c #CC9531",
"P$	c #A97C32",
"Q$	c #67502B",
"R$	c #5E4B2A",
"S$	c #906E2D",
"T$	c #CC9536",
"U$	c #B68A31",
"V$	c #A49453",
"W$	c #B59257",
"X$	c #DA9F35",
"Y$	c #DA9F31",
"Z$	c #D9A136",
"`$	c #E0A837",
" %	c #D3A83A",
".%	c #3F3C33",
"+%	c #6A6D70",
"@%	c #BCBFC0",
"#%	c #D4D5D8",
"$%	c #DCDCDE",
"%%	c #E5E5E6",
"&%	c #EBEBEB",
"*%	c #D7D3D0",
"=%	c #CC9F4E",
"-%	c #C08E33",
";%	c #A37A33",
">%	c #956D32",
",%	c #997132",
"'%	c #B08133",
")%	c #C79636",
"!%	c #E0A838",
"~%	c #E7B03C",
"{%	c #E8AF3A",
"]%	c #DEAC47",
"^%	c #CAAA70",
"/%	c #D29A31",
"(%	c #D79F36",
"_%	c #DAA136",
":%	c #E4AF3A",
"<%	c #8B7751",
"[%	c #8B8E8D",
"}%	c #AAADB4",
"|%	c #C0C1C6",
"1%	c #CBCECF",
"2%	c #D1D1D6",
"3%	c #D3D6D6",
"4%	c #D9D9DB",
"5%	c #D0D3D3",
"6%	c #BCBAB9",
"7%	c #C2984D",
"8%	c #C48E33",
"9%	c #A67A32",
"0%	c #9D7532",
"a%	c #A27732",
"b%	c #B88935",
"c%	c #D09836",
"d%	c #E2A636",
"e%	c #DEA636",
"f%	c #E0A535",
"g%	c #CEA65C",
"h%	c #CBA052",
"i%	c #D19B37",
"j%	c #D99F35",
"k%	c #D8A036",
"l%	c #DAA034",
"m%	c #E7AF3A",
"n%	c #C4943C",
"o%	c #9C824D",
"p%	c #75797D",
"q%	c #9D9FA3",
"r%	c #B0B1B5",
"s%	c #BABCC1",
"t%	c #BFC0C4",
"u%	c #C0C2C6",
"v%	c #B5B7BA",
"w%	c #919195",
"x%	c #B28B45",
"y%	c #C39135",
"z%	c #B1812F",
"A%	c #A77B32",
"B%	c #B18233",
"C%	c #C39036",
"D%	c #D29B34",
"E%	c #D49E36",
"F%	c #D59C33",
"G%	c #C7963A",
"H%	c #D1AB66",
"I%	c #D29936",
"J%	c #DAA134",
"K%	c #E0AA3A",
"L%	c #C59235",
"M%	c #614F2D",
"N%	c #1A202A",
"O%	c #3A3E40",
"P%	c #565A5D",
"Q%	c #666A6E",
"R%	c #6D7174",
"S%	c #63676A",
"T%	c #4A5053",
"U%	c #2B3037",
"V%	c #80642E",
"W%	c #C99537",
"X%	c #BE8932",
"Y%	c #B78633",
"Z%	c #C08C35",
"`%	c #CC9836",
" &	c #D69B30",
".&	c #D59E36",
"+&	c #D29931",
"@&	c #BF913F",
"#&	c #CB9839",
"$&	c #D79C2F",
"%&	c #DA9E2E",
"&&	c #DEA236",
"*&	c #96723C",
"=&	c #D3CDC7",
"-&	c #373B3E",
";&	c #111518",
">&	c #121619",
",&	c #161A1D",
"'&	c #131719",
")&	c #161A1C",
"!&	c #191D20",
"~&	c #1A1E20",
"{&	c #564428",
"]&	c #C6912E",
"^&	c #C29242",
"/&	c #C79235",
"(&	c #CB9735",
"_&	c #D29D36",
":&	c #D09932",
"<&	c #B98C40",
"[&	c #C3A977",
"}&	c #BA9754",
"|&	c #D0B07D",
"1&	c #D4CCC1",
"2&	c #4B4E50",
"3&	c #2B2E31",
"4&	c #202427",
"5&	c #1B1F22",
"6&	c #191D21",
"7&	c #1B1F21",
"8&	c #35322B",
"9&	c #AB8036",
"0&	c #CE9533",
"a&	c #CE9937",
"b&	c #D29A32",
"c&	c #D49B33",
"d&	c #CC983A",
"e&	c #BF954C",
"f&	c #BE9757",
"g&	c #C0923D",
"h&	c #C19039",
"i&	c #BD944F",
"j&	c #565656",
"k&	c #605E5C",
"                                                                                                                                      ",
"                                                                                                                                      ",
"    .                                                                                                                                 ",
"  + @ # $ %                                                                                                                           ",
"    & * = - ; >                                     ,                                                                                 ",
"      ' ) ! ~ { ] ^                               / ( _ _ :                                                                           ",
"        < [ ) } ~ { | 1 2                     : 3 / 4 _ 3 3 3 :                                                                       ",
"          5 6 7 * } 8 9 0 1 2               a 3 3 / b / 3 3 3 3 3 ,                                                                   ",
"            c d 7 ) e f g h i j           3 3 3 3 / b / 3 3 3 3 3 3 3 a                                                               ",
"              k l m [ * } = n o p     q _ 3 3 3 3 _ 4 _ 3 3 3 3 3 3 3 3 3 r s   t u v w                                               ",
"                x k d [ y z A B C D C : a _ 3 3 3 / b _ 3 3 3 3 3 3 3 3 3 E F G H I J K L                                             ",
"                  M N l ) O P Q R S T U V W / 3 3 / b / 3 3 3 3 3 3 3 3 X Y Z `  ...+.@.#.$.                                          ",
"                    M x %.&.*.=.-.;.;.>.-.S ,.r / a './ 3 3 3 3 3 3 3 3 ).!.~.Z {.].^./.(._.:.                                        ",
"                      M M <.[.}.|.1.2.3.4.A 5.6.7., '.a 3 3 3 3 3 3 3 3 8.9.0.9.a.b.c.d.9.e.f.                                        ",
"                        g.h.i.j.[.k.l.m.A n.o.p.q.r.s.r _ 3 3 3 3 3 3 3 t.u.v.w.x.y.z.A.B.C.D.3 ,                                     ",
"                      E.F.G.H.I.i.h.J.K.L.j M.N.O.P.Q.C R./ _ 3 3 3 3 3 S.T.U.$.V.W.X.Y.Z.`. +3 3 3 a b                               ",
"                    4 .+b ++@+G.#+$+i.%+&+*+=+-+;+>+,+'+r.7.W / _ 3 3 3 )+!+~+{+]+^+/+(+_+_.:+3 3 3 3 3 _ <+                          ",
"                  a a , [+q '.}+|+=+H.#+$+E.#+1+G.2+3+>+4+5+p 7.a / 3 3 6+7+8+9+0+a+b+c+d+e+f+3 3 3 3 3 3 3 3 :                       ",
"                _ _ _ a a : <+q '.}+g+h+=+H.H.1+=+G.i+j+k+l+m+n+r.o+a _ p+q+r+s+t+u+v+w+x+y+ +3 3 3 3 3 3 3 3 3 3 :                   ",
"            , 3 3 3 3 3 / a r : <+q '.++F.@+z+z+h+=+i.h+2+j+N.A+B+C+D+7.E+F+G+H+I+J+K+L+M+N+O+3 3 3 3 3 3 3 3 3 3 3 3 ,               ",
"          _ 3 3 3 3 3 3 3 _ _ a r : <+( b '.++}+P+g+$+H.H.=+Q+R+S+T+U+V+W+X+Y+Z+`+ @.@+@@@Z #@$@3 3 3 3 3 3 3 3 3 3 3 3 3 a 4         ",
"        : 3 3 3 3 3 3 3 3 3 3 _ / a r : [+<+.+C b %@g+H.$+i.i.i.&@B+*@=@-@X.;@>@,@'@)@!@~@{@]@^@q q ( .+.+<+/@: , r r a / / _ / <+    ",
"            3 3 3 3 3 3 3 3 3 3 3 _ _ / r , , (@/@.+4 '.++F.g+h+h+_@:@<@[@}@|@1@2@_ 3 3@4@5@6@7@8@4 4 b '.'.s ++++++++P+P+P+++b       ",
"              3 3 3 3 3 3 3 3 3 3 3 _ _ _ _ / a r 9@[+.+q '.++F.g+0@a@b@c@d@e@f@g@3 3 3 h@i@j@k@l@m@3 3 3 _ _ _ / / a a a r n@n@      ",
"                a 3 3 3 3 3 3 3 3 3 3 3 3 3 3 3 _ / a 9@[+.+4 %@++o@p@E 3 q@q@3 3 3 3 3 / r@$.s@t@u@v@3 3 3 3 3 3 3 3 3 3 n@n@        ",
"                  : 3 3 3 3 3 3 3 3 3 3 3 3 3 3 3 3 3 / r , [+.+w@x@y@z@A@B@3 3 3 3 3 )@C@D@E@E@H F@G@H@3 3 3 3 3 3 3 3 q n@          ",
"                    q 3 3 3 3 3 3 3 3 3 3 3 3 3 3 3 3 3 _ / r , I@J@K@L@M@g@3 3 3 3 B@a N@O@P@9.Q@R@S@T@3 3 3 3 3 3 3 @+n@            ",
"                      }+3 3 3 3 3 3 3 3 3 3 3 3 3 3 3 3 3 _ _ U@V@W@h@X@g@3 3 3 3 3 3 )@g@B@Y@Z@`@ #.#+#_ 3 3 3 3 / *+n@              ",
"                        g+3 3 3 3 3 3 3 3 3 3 3 3 3 3 3 3 3 @###$#%#&#3 3 3 3 3 3 3 3 3 3 3 *#=#y+-#;#>#,#/ 3 3 , '#n@                ",
"                          )#a 3 3 3 3 3 3 3 3 3 3 3 3 3 3 3 !#~#{#]#^#3 3 3 _ 3 3 3 3 3 3 3 )@/#(#_#:#<#[#V R.4 g.n@                  ",
"                            )#: 3 3 3 3 3 3 3 3 3 3 3 3 3 [+}#|#1#N@g@3 3 )@/ 3 3 3 3 3 3 3 3 2#3#4#5#6#7#8#9#0#n@                    ",
"                              )#b 3 3 3 3 3 3 3 3 3 3 3 3 a#b#6#c#d#g@3 3 g@e#3 3 3 3 3 3 3 B@f#g#h#i#j#k#k+l#8#m#n#                  ",
"                                )#F.3 3 3 3 3 3 3 3 3 3 3 o#p#q#r#s#^#3 3 ^#^#3 3 3 3 3 3 3 X@t#u#:#v#w#n#x#y#z#A#V B#                ",
"                                    h+3 3 3 3 3 3 3 3 3 3 C#D#E#F#G#a 3 3 3@^#3 3 3 3 3 3 3 )+H#I#J#K#L#M#M#N#O#P#Q#R#S#              ",
"                                      *+a 3 3 3 3 3 3 3 3 T#U#V#W#X#Y#3 3 a ^#3 3 3 3 3 3 3 Z#`# $.$+$c.      M#@$#$$$%$%$            ",
"                                        )#: 3 3 3 3 3 3 3 &$*$=$-$;$>$,$B@@#,$3 3 3 3 '$'$)$!$~${$]$^$/$          ($_$:$<$[$          ",
"                                          )#( 3 3 3 }$|$1$2$3$4$5$6$7$&#e#8$)@3 3 3 9$0$a$b$c$d$e$f$g$h$              M#M#i$          ",
"                                            )#4 3 3 j$k$l$m$n$o$p$q$r$s$t$/ B@3 3 3 u$v$w$x$y$z$A$B$C$D$                              ",
"                                              )#}+3 E$F$l$m$G$H$I$J$K$L$N@r / g@g@g@M$N$O$P$Q$R$S$T$U$V$                              ",
"                                                  W$X$G$Y$m$Z$`$ %.%+%@%#%$%%%&%@#s$*%=%-%;%>%,%'%)%!%~%~%{%]%                        ",
"                                                  ^%/%(%_%(%m$m$:%<%[%}%|%1%2%3%4%5%6%7%8%9%0%a%b%c%m$d%e%f%g%                        ",
"                                                    h%i%j%k%k%l%m%n%o%p%q%r%s%t%u%v%w%x%y%z%A%B%C%D%E%k%F%G%                          ",
"                                                      H%I%k%Z$J%K%L%M%N%O%P%Q%R%S%T%U%V%W%X%Y%Z%`% &.&+&@&                            ",
"                                                          #&$&%&&&*&=&-&;&>&,&'&)&!&~&{&]&^&/&(&.&_&:&<&                              ",
"                                                            [&}&|&1&3 3 /#2&3&4&5&6&7&8&9&0&a&b&c&d&e&                                ",
"                                                              )#i.a 3 a $+n@              f&g&h&i&                                    ",
"                                                                )#j&4 k&n@                                                            ",
"                                                                  )#n@n@                                                              ",
"                                                                                                                                      ",
"                                                                                                                                      "};
